<svg xmlns="http://www.w3.org/2000/svg" viewBox="0 0 750 500"><g id="freepik--background-simple--inject-66"><path d="M191.74,414.91H504.52a219.11,219.11,0,0,0,55-44.71c50.74-57.27,69.39-154.1,43.34-225.91l-2.4-5.17c-19.28-41.56-59.71-70.29-105.89-73.66a125.82,125.82,0,0,0-19.51.08c-43.29,3.57-83.86,30.08-104,68-11.85,22.28-17.68,48.91-37,65.38-25.1,21.43-62.73,17.54-95.62,12.46s-70.55-8.88-95.55,12.66c-15.66,13.49-22.72,34.55-24.12,55C115.08,332.51,146.7,384.68,191.74,414.91Z" style="fill:#e0e0e0"></path></g><g id="freepik--Device--inject-66"><rect x="175.89" y="156.3" width="384.52" height="254.28" rx="14.57" style="fill:#455a64"></rect><path d="M160.86,394.16H577.46a0,0,0,0,1,0,0v4.45a17.8,17.8,0,0,1-17.8,17.8h-381a17.8,17.8,0,0,1-17.8-17.8v-4.45a0,0,0,0,1,0,0Z" style="fill:#455a64"></path><rect x="186.21" y="166.4" width="362.8" height="214.73" style="fill:#263238"></rect><polygon points="330.25 391.77 335.41 400 408.16 400 412.96 391.77 330.25 391.77" style="fill:#263238"></polygon><rect x="193.69" y="173.67" width="348.6" height="206.78" rx="3.27" style="fill:#ebebeb"></rect><polygon points="541.91 380.75 193.31 380.75 193.69 189.13 541.91 189.13 541.91 380.75" style="fill:#fafafa"></polygon><path d="M222.28,181.66a2.79,2.79,0,1,1-2.79-2.78A2.78,2.78,0,0,1,222.28,181.66Z" style="fill:#263238"></path><path d="M205.4,181.66a2.79,2.79,0,1,1-2.78-2.78A2.77,2.77,0,0,1,205.4,181.66Z" style="fill:#263238"></path><path d="M213.5,181.66a2.79,2.79,0,1,1-2.78-2.78A2.77,2.77,0,0,1,213.5,181.66Z" style="fill:#263238"></path><path d="M557.1,391.77c0,.14-85.34.25-190.59.25s-190.62-.11-190.62-.25,85.33-.25,190.62-.25S557.1,391.64,557.1,391.77Z" style="fill:#263238"></path><polygon points="305.31 263.98 447.14 262.66 451.29 359.07 304.43 358.02 305.31 263.98" style="fill:#00CC9E"></polygon><path d="M305.31,264l67-54.45a7.72,7.72,0,0,1,9.74,0l65.08,53.12" style="fill:#00CC9E"></path><g style="opacity:0.30000000000000004"><path d="M305.31,264l67-54.45a7.72,7.72,0,0,1,9.74,0l65.08,53.12"></path></g><path d="M304.43,358c-.17-.17,11.15-12.59,25.3-27.74S355.5,303,355.68,303.14s-11.15,12.58-25.31,27.74S304.61,358.18,304.43,358Z" style="fill:#263238"></path><path d="M451.29,359.07c-.18.17-11.26-12-24.75-27.07s-24.28-27.5-24.1-27.66,11.26,12,24.76,27.08S451.47,358.91,451.29,359.07Z" style="fill:#263238"></path><g style="opacity:0.5"><polyline points="447.14 262.66 376.04 319.7 305.31 263.98"></polyline></g><polygon points="312.47 269.24 312.15 224.94 436.34 223.22 437.83 269.82 376.03 318.95 312.47 269.24" style="fill:#fafafa"></polygon><path d="M312.47,269.24s.41.29,1.18.88l3.38,2.61,12.86,10c11.08,8.65,27,21,46.27,36.08h-.26l61.77-49.17-.09.21c-.29-8.89-.59-18.22-.89-27.71-.21-6.39-.41-12.71-.61-18.9l.26.25-124.18,1.64.16-.17c.06,13.93.12,25,.15,32.58,0,3.79,0,6.71,0,8.7,0,1,0,1.73,0,2.25s0,.77,0,.77,0-.25,0-.75,0-1.26,0-2.23c0-2-.06-4.9-.1-8.68-.07-7.61-.18-18.68-.31-32.64v-.16h.16L436.33,223h.26v.26c.2,6.19.4,12.5.61,18.89.3,9.49.6,18.82.88,27.71v.13l-.1.08-61.84,49.1-.13.11-.13-.11-46.22-36.27-12.76-10.06-3.33-2.64Z" style="fill:#263238"></path><path d="M416.76,245.56c0,.14-19,.41-42.42.6s-42.42.23-42.42.09,19-.41,42.42-.61S416.76,245.41,416.76,245.56Z" style="fill:#263238"></path><path d="M416.78,258.07c0,.14-19,.42-42.41.61s-42.42.23-42.42.08,19-.41,42.42-.6S416.78,257.93,416.78,258.07Z" style="fill:#263238"></path><path d="M416.81,272.49c0,.15-19,.42-42.41.61s-42.42.23-42.42.08,19-.41,42.42-.6S416.81,272.35,416.81,272.49Z" style="fill:#263238"></path><path d="M416.84,286.91c0,.15-18.11.41-40.46.59s-40.47.22-40.47.07,18.11-.41,40.47-.59S416.84,286.77,416.84,286.91Z" style="fill:#263238"></path><path d="M401,299.6a1.65,1.65,0,0,1-.5.06l-1.43.06-5.24.13-17.31.32c-6.76.12-12.89.16-17.32.16l-5.24,0-1.43,0a2,2,0,0,1-.5-.05,1.65,1.65,0,0,1,.5-.06l1.42-.06,5.25-.13,17.31-.31c6.76-.13,12.88-.17,17.31-.17l5.25,0,1.43,0A2.55,2.55,0,0,1,401,299.6Z" style="fill:#263238"></path><path d="M385,311.8a76.73,76.73,0,0,1-9,.28,77.38,77.38,0,0,1-9-.24,79.42,79.42,0,0,1,9-.28A80.12,80.12,0,0,1,385,311.8Z" style="fill:#263238"></path></g><g id="freepik--Floor--inject-66"><path d="M709,415.55c0,.15-149.54.26-334,.26s-334-.11-334-.26,149.51-.26,334-.26S709,415.41,709,415.55Z" style="fill:#263238"></path></g><g id="freepik--envelope-3--inject-66"><path d="M401.76,222.83c.14,0,.2.58.13,1.27s-.24,1.23-.38,1.22-.2-.59-.13-1.28S401.61,222.81,401.76,222.83Z" style="fill:#263238"></path><path d="M403.09,213.09a6.09,6.09,0,0,1-.11,2.46,6.18,6.18,0,0,1-.63,2.39,11.6,11.6,0,0,1,.74-4.85Z" style="fill:#263238"></path><path d="M405.05,203.45a6,6,0,0,1-.27,2.46,6.14,6.14,0,0,1-.79,2.34,5.91,5.91,0,0,1,.28-2.45A6,6,0,0,1,405.05,203.45Z" style="fill:#263238"></path><path d="M407.72,194a11.53,11.53,0,0,1-1.43,4.71,6.14,6.14,0,0,1,.47-2.43A5.88,5.88,0,0,1,407.72,194Z" style="fill:#263238"></path><path d="M411.15,184.78a6.15,6.15,0,0,1-.67,2.38,6,6,0,0,1-1.15,2.19A6.19,6.19,0,0,1,410,187,5.92,5.92,0,0,1,411.15,184.78Z" style="fill:#263238"></path><path d="M415.41,175.93a11.85,11.85,0,0,1-2.24,4.37,6,6,0,0,1,.89-2.3C414.68,176.79,415.28,175.86,415.41,175.93Z" style="fill:#263238"></path><path d="M420.55,167.55a6.12,6.12,0,0,1-1.15,2.19c-.72,1.14-1.41,2-1.53,1.93a5.81,5.81,0,0,1,1.09-2.22C419.72,168.32,420.43,167.47,420.55,167.55Z" style="fill:#263238"></path><path d="M426.61,159.81a6.23,6.23,0,0,1-1.37,2.06c-.87,1-1.66,1.81-1.78,1.72s.5-1,1.38-2.05S426.5,159.72,426.61,159.81Z" style="fill:#263238"></path><path d="M433.53,152.84c.1.11-.62.95-1.6,1.88s-1.86,1.6-2,1.5.61-.94,1.6-1.88S433.44,152.73,433.53,152.84Z" style="fill:#263238"></path><path d="M441.27,146.78c.08.12-.74.87-1.83,1.67a6.06,6.06,0,0,1-2.13,1.24c-.09-.11.73-.86,1.83-1.66A5.9,5.9,0,0,1,441.27,146.78Z" style="fill:#263238"></path><path d="M449.75,141.81a11.7,11.7,0,0,1-4.33,2.34c-.07-.13.84-.75,2-1.4A5.91,5.91,0,0,1,449.75,141.81Z" style="fill:#263238"></path><path d="M458.85,138.11a6.24,6.24,0,0,1-2.22,1.08,5.93,5.93,0,0,1-2.4.59,6.09,6.09,0,0,1,2.22-1.08A5.77,5.77,0,0,1,458.85,138.11Z" style="fill:#263238"></path><path d="M468.41,135.88a6.2,6.2,0,0,1-2.37.66,6,6,0,0,1-2.45.25,9.83,9.83,0,0,1,4.82-.91Z" style="fill:#263238"></path><path d="M478.22,135.34a6.08,6.08,0,0,1-2.45.28,5.85,5.85,0,0,1-2.46-.23,6.1,6.1,0,0,1,2.45-.29A5.84,5.84,0,0,1,478.22,135.34Z" style="fill:#263238"></path><path d="M488,136.49a6.07,6.07,0,0,1-2.47-.14,5.94,5.94,0,0,1-2.39-.65,11.87,11.87,0,0,1,4.86.79Z" style="fill:#263238"></path><path d="M497.39,139.3a11.61,11.61,0,0,1-4.65-1.62,6.32,6.32,0,0,1,2.41.56A5.91,5.91,0,0,1,497.39,139.3Z" style="fill:#263238"></path><path d="M506.14,143.76a6.23,6.23,0,0,1-2.26-1,6.06,6.06,0,0,1-2-1.45,6,6,0,0,1,2.26,1C505.32,143,506.22,143.64,506.14,143.76Z" style="fill:#263238"></path><path d="M513.84,149.84a6.27,6.27,0,0,1-2-1.43c-1-.88-1.76-1.7-1.67-1.81s1,.52,2,1.42S513.94,149.74,513.84,149.84Z" style="fill:#263238"></path><path d="M518.7,155.44c-.12.08-.55-.29-1-.83s-.67-1.05-.56-1.15.54.28,1,.83S518.82,155.35,518.7,155.44Z" style="fill:#263238"></path><path d="M564.94,215.69a6.13,6.13,0,0,1-2.37-.82c-1.26-.58-2.23-1.16-2.16-1.29a6.52,6.52,0,0,1,2.38.82A6.28,6.28,0,0,1,564.94,215.69Z" style="fill:#263238"></path><path d="M574.38,219a12.16,12.16,0,0,1-4.78-1.46,12,12,0,0,1,4.78,1.46Z" style="fill:#263238"></path><path d="M584.25,220.55a6.18,6.18,0,0,1-2.52,0,6.1,6.1,0,0,1-2.45-.53,6.38,6.38,0,0,1,2.51,0A6.29,6.29,0,0,1,584.25,220.55Z" style="fill:#263238"></path><path d="M594.23,220.24a6.2,6.2,0,0,1-2.47.44,6,6,0,0,1-2.52-.07,6.56,6.56,0,0,1,2.48-.45A6.1,6.1,0,0,1,594.23,220.24Z" style="fill:#263238"></path><path d="M604.05,218.4a6.42,6.42,0,0,1-2.37.84,6.27,6.27,0,0,1-2.51.25,6.29,6.29,0,0,1,2.4-.75A6.1,6.1,0,0,1,604.05,218.4Z" style="fill:#263238"></path><path d="M613.33,214.71c.07.13-.9.7-2.16,1.29a6,6,0,0,1-2.38.8,12.16,12.16,0,0,1,4.54-2.09Z" style="fill:#263238"></path><path d="M621.62,209.14c.09.11-.69.93-1.8,1.77a5.52,5.52,0,0,1-2.19,1.24c-.08-.12.78-.83,1.88-1.65A7,7,0,0,1,621.62,209.14Z" style="fill:#263238"></path><path d="M628.42,201.84a5.56,5.56,0,0,1-1.33,2.15c-.89,1.07-1.75,1.81-1.85,1.71s.58-1,1.45-2S628.3,201.76,628.42,201.84Z" style="fill:#263238"></path><path d="M633.1,193a5.34,5.34,0,0,1-.69,2.43,5.56,5.56,0,0,1-1.34,2.14,7.37,7.37,0,0,1,.86-2.36A7.59,7.59,0,0,1,633.1,193Z" style="fill:#263238"></path><path d="M635,183.26a5.28,5.28,0,0,1,.11,2.52,5.18,5.18,0,0,1-.62,2.45,7.78,7.78,0,0,1,.1-2.5A7.6,7.6,0,0,1,635,183.26Z" style="fill:#263238"></path><path d="M633.51,173.4a5.45,5.45,0,0,1,.9,2.36,5.32,5.32,0,0,1,.21,2.51,7.43,7.43,0,0,1-.72-2.39A7.59,7.59,0,0,1,633.51,173.4Z" style="fill:#263238"></path><path d="M629.16,164.44c.11-.09.87.77,1.57,2a5.2,5.2,0,0,1,.94,2.33c-.13.07-.71-.89-1.39-2.07A7.72,7.72,0,0,1,629.16,164.44Z" style="fill:#263238"></path><path d="M622.22,157.3a5.22,5.22,0,0,1,2.13,1.36c1.06.91,1.75,1.81,1.65,1.91s-1-.63-2-1.52S622.14,157.42,622.22,157.3Z" style="fill:#263238"></path><path d="M613.15,153.24a5,5,0,0,1,2.5.41,5.18,5.18,0,0,1,2.25,1.15,7.82,7.82,0,0,1-2.41-.66A8.19,8.19,0,0,1,613.15,153.24Z" style="fill:#263238"></path><path d="M603.24,153.41a4.83,4.83,0,0,1,2.42-.73,5,5,0,0,1,2.53.08,26.92,26.92,0,0,1-5,.65Z" style="fill:#263238"></path><path d="M594.62,158.23c-.11-.09.58-1,1.71-1.87a4.71,4.71,0,0,1,2.26-1.15c.07.14-.87.75-2,1.57S594.73,158.33,594.62,158.23Z" style="fill:#263238"></path><path d="M590.66,167.21a4.57,4.57,0,0,1,.15-2.53,4.42,4.42,0,0,1,1.05-2.31,10.86,10.86,0,0,1-.55,2.43A9.63,9.63,0,0,1,590.66,167.21Z" style="fill:#263238"></path><path d="M592.61,176.9a4.86,4.86,0,0,1-1.21-2.22,4.72,4.72,0,0,1-.42-2.5,9,9,0,0,1,.91,2.33A8.62,8.62,0,0,1,592.61,176.9Z" style="fill:#263238"></path><path d="M599.15,184.34A5,5,0,0,1,597,183c-1.06-.92-1.71-1.86-1.6-1.95s.92.66,1.94,1.56S599.23,184.22,599.15,184.34Z" style="fill:#263238"></path><path d="M608.23,188.41a5.28,5.28,0,0,1-2.48-.47,5.06,5.06,0,0,1-2.25-1.15,7.82,7.82,0,0,1,2.41.66A7.4,7.4,0,0,1,608.23,188.41Z" style="fill:#263238"></path><path d="M618.15,189.35a9.23,9.23,0,0,1-5-.11,7.9,7.9,0,0,1,2.5-.12A7.28,7.28,0,0,1,618.15,189.35Z" style="fill:#263238"></path><path d="M628,187.53a9.36,9.36,0,0,1-4.84,1.24,7.13,7.13,0,0,1,2.37-.79A7.63,7.63,0,0,1,628,187.53Z" style="fill:#263238"></path><path d="M637,183.38a6.27,6.27,0,0,1-2.09,1.4,6.2,6.2,0,0,1-2.33.94,12.18,12.18,0,0,1,4.42-2.34Z" style="fill:#263238"></path><path d="M645,177.42c.1.11-.69.91-1.76,1.79a6.49,6.49,0,0,1-2.1,1.39c-.09-.12.71-.92,1.77-1.79A6.58,6.58,0,0,1,645,177.42Z" style="fill:#263238"></path><path d="M651.85,170.11c.11.09-.53,1-1.43,2.07s-1.72,1.83-1.82,1.73.53-1,1.42-2.07S651.73,170,651.85,170.11Z" style="fill:#263238"></path><path d="M657.34,161.77a6.14,6.14,0,0,1-1.06,2.28c-.72,1.19-1.39,2.09-1.51,2a6.19,6.19,0,0,1,1.06-2.28C656.54,162.6,657.21,161.7,657.34,161.77Z" style="fill:#263238"></path><path d="M661.4,152.63a6.44,6.44,0,0,1-.67,2.43,5.66,5.66,0,0,1-1.18,2.22,7.14,7.14,0,0,1,.69-2.41A6.29,6.29,0,0,1,661.4,152.63Z" style="fill:#263238"></path><path d="M664.19,143a6.07,6.07,0,0,1-.37,2.48,6.26,6.26,0,0,1-.88,2.36,11.95,11.95,0,0,1,1.25-4.84Z" style="fill:#263238"></path><path d="M665.94,133.2a6,6,0,0,1-.12,2.51,6.31,6.31,0,0,1-.63,2.43,6,6,0,0,1,.12-2.51A6.38,6.38,0,0,1,665.94,133.2Z" style="fill:#263238"></path><path d="M666.86,123.24a11.93,11.93,0,0,1-.37,5,6.47,6.47,0,0,1-.07-2.52A6.31,6.31,0,0,1,666.86,123.24Z" style="fill:#263238"></path><path d="M667.18,113.25a6,6,0,0,1,.21,2.5,6,6,0,0,1-.31,2.5,6.55,6.55,0,0,1-.21-2.51A6.39,6.39,0,0,1,667.18,113.25Z" style="fill:#263238"></path><path d="M667.11,103.25a6.27,6.27,0,0,1,.3,2.5,6,6,0,0,1-.23,2.5,6.31,6.31,0,0,1-.3-2.5A6.43,6.43,0,0,1,667.11,103.25Z" style="fill:#263238"></path><path d="M667,97.1c.14,0,.27.25.28.57s-.1.57-.25.58-.27-.25-.27-.57S666.82,97.1,667,97.1Z" style="fill:#263238"></path><rect x="623.19" y="70.99" width="68.37" height="46.09" transform="translate(-6.31 71.52) rotate(-6.2)" style="fill:#00CC9E"></rect><path d="M625.85,120.66v0l-5-45.84h0l68-7.38v0l5,45.85h0Zm-4.92-45.82,5,45.77,67.92-7.38-5-45.77Z" style="fill:#263238"></path><path d="M689.15,68a4.68,4.68,0,0,1-.57.68l-1.71,1.87-6.39,6.78L659.19,99.55l-.17.19-.22-.14-.52-.33L632,82.46,624,77.31l-2.14-1.43a5.91,5.91,0,0,1-.73-.53,4.5,4.5,0,0,1,.8.42l2.2,1.33,8,5,26.41,16.66.52.33-.39,0L680.17,77l6.53-6.64,1.79-1.78A4.87,4.87,0,0,1,689.15,68Z" style="fill:#263238"></path><path d="M626.15,121.16c-.14-.09,4.29-6.93,9.89-15.26s10.27-15,10.41-14.92-4.28,6.93-9.89,15.26S626.29,121.26,626.15,121.16Z" style="fill:#263238"></path><path d="M669,88c.13-.12,5.86,5.57,12.8,12.7s12.47,13,12.35,13.13-5.85-5.56-12.8-12.7S668.86,88.07,669,88Z" style="fill:#263238"></path></g><g id="freepik--envelope-2--inject-66"><path d="M378.47,206.35c.14,0,.35.51.47,1.19s.09,1.25-.05,1.28-.35-.51-.47-1.2S378.33,206.37,378.47,206.35Z" style="fill:#263238"></path><path d="M376.87,196.59a6.2,6.2,0,0,1,.65,2.4,6.11,6.11,0,0,1,.14,2.48,5.94,5.94,0,0,1-.65-2.4A6.11,6.11,0,0,1,376.87,196.59Z" style="fill:#263238"></path><path d="M375.44,186.81a6,6,0,0,1,.6,2.41,6.17,6.17,0,0,1,.09,2.48,5.84,5.84,0,0,1-.6-2.41A6.17,6.17,0,0,1,375.44,186.81Z" style="fill:#263238"></path><path d="M374.32,177a6.22,6.22,0,0,1,.52,2.43,5.88,5.88,0,0,1,0,2.48,6.12,6.12,0,0,1-.51-2.43A6,6,0,0,1,374.32,177Z" style="fill:#263238"></path><path d="M373.63,167.12a11.89,11.89,0,0,1,.28,4.94,11.87,11.87,0,0,1-.28-4.94Z" style="fill:#263238"></path><path d="M373.53,157.23a12.14,12.14,0,0,1,0,5,5.85,5.85,0,0,1-.25-2.47A6,6,0,0,1,373.53,157.23Z" style="fill:#263238"></path><path d="M374.15,147.37a6.33,6.33,0,0,1,.05,2.49,6.14,6.14,0,0,1-.46,2.44,5.93,5.93,0,0,1-.06-2.48A6.06,6.06,0,0,1,374.15,147.37Z" style="fill:#263238"></path><path d="M375.63,137.6a5.84,5.84,0,0,1-.17,2.48,6,6,0,0,1-.69,2.39,12.16,12.16,0,0,1,.86-4.87Z" style="fill:#263238"></path><path d="M378.16,128.05a6.27,6.27,0,0,1-.46,2.44,6.34,6.34,0,0,1-.95,2.3,6,6,0,0,1,.45-2.45A5.88,5.88,0,0,1,378.16,128.05Z" style="fill:#263238"></path><path d="M381.85,118.88a6.06,6.06,0,0,1-.76,2.37,6.21,6.21,0,0,1-1.23,2.16,12,12,0,0,1,2-4.53Z" style="fill:#263238"></path><path d="M386.67,110.26a6.17,6.17,0,0,1-1.05,2.25c-.7,1.16-1.37,2-1.5,2a6.18,6.18,0,0,1,1.06-2.25C385.88,111.07,386.55,110.18,386.67,110.26Z" style="fill:#263238"></path><path d="M392.6,102.35c.11.1-.49,1-1.34,2.09s-1.64,1.85-1.76,1.76a6.26,6.26,0,0,1,1.35-2.09C391.71,103.05,392.5,102.26,392.6,102.35Z" style="fill:#263238"></path><path d="M399.63,95.4c.09.12-.65.95-1.65,1.87s-1.9,1.57-2,1.47.64-.93,1.65-1.86S399.54,95.29,399.63,95.4Z" style="fill:#263238"></path><path d="M407.71,89.72c.07.13-.8.82-1.95,1.55a6.09,6.09,0,0,1-2.22,1.11c-.08-.11.79-.81,1.94-1.55A6.34,6.34,0,0,1,407.71,89.72Z" style="fill:#263238"></path><path d="M416.71,85.67a6,6,0,0,1-2.21,1.14,6.05,6.05,0,0,1-2.39.66,6.08,6.08,0,0,1,2.21-1.14A6,6,0,0,1,416.71,85.67Z" style="fill:#263238"></path><path d="M423.93,83.89c0,.14-.5.36-1.17.49s-1.25.12-1.28,0,.5-.36,1.18-.49S423.91,83.75,423.93,83.89Z" style="fill:#263238"></path><rect x="371.32" y="45.95" width="50.11" height="74.34" transform="translate(175.89 422.84) rotate(-68.86)" style="fill:#00CC9E"></rect><path d="M422,119.93h0L352.64,93.1v0l18.09-46.76h0l69.36,26.82v0ZM352.7,93.07,422,119.86l18.06-46.69-69.3-26.79Z" style="fill:#263238"></path><path d="M440.08,73.81a4.77,4.77,0,0,1-.88.37l-2.59.94-9.55,3.36L395.38,89.36l-.26.09-.14-.24-.34-.58-17-29.37-5.09-8.94-1.35-2.45a5,5,0,0,1-.44-.88,5.53,5.53,0,0,1,.55.81l1.47,2.39L378,59c4.44,7.54,10.5,17.87,17.19,29.27l.34.58-.4-.15L426.91,78l9.62-3.15,2.63-.83A4.38,4.38,0,0,1,440.08,73.81Z" style="fill:#263238"></path><path d="M352.67,93.73c-.09-.16,7.6-4.55,17.18-9.8s17.41-9.38,17.5-9.22-7.6,4.55-17.18,9.81S352.76,93.89,352.67,93.73Z" style="fill:#263238"></path><path d="M410.63,83c.18-.05,2.87,8.3,6,18.65s5.55,18.8,5.37,18.85-2.87-8.29-6-18.65S410.45,83.09,410.63,83Z" style="fill:#263238"></path></g><g id="freepik--envelope-1--inject-66"><path d="M349.35,217.29c.14,0,.21.58.16,1.27s-.22,1.24-.36,1.23-.22-.58-.16-1.27S349.21,217.28,349.35,217.29Z" style="fill:#263238"></path><path d="M349.6,207.12a6.33,6.33,0,0,1,.26,2.55,6.55,6.55,0,0,1-.27,2.54,6.41,6.41,0,0,1-.25-2.54A6.63,6.63,0,0,1,349.6,207.12Z" style="fill:#263238"></path><path d="M348.91,197a12.78,12.78,0,0,1,.47,5.07,6.17,6.17,0,0,1-.49-2.51A6.61,6.61,0,0,1,348.91,197Z" style="fill:#263238"></path><path d="M347.22,186.94a6.51,6.51,0,0,1,.74,2.45,6.44,6.44,0,0,1,.23,2.55,6.59,6.59,0,0,1-.74-2.45A6.22,6.22,0,0,1,347.22,186.94Z" style="fill:#263238"></path><path d="M344.45,177.15A12.48,12.48,0,0,1,346,182a6.42,6.42,0,0,1-1-2.35A6.35,6.35,0,0,1,344.45,177.15Z" style="fill:#263238"></path><path d="M340.56,167.76a6.32,6.32,0,0,1,1.28,2.21,6.54,6.54,0,0,1,.81,2.43,6.57,6.57,0,0,1-1.28-2.21A6.43,6.43,0,0,1,340.56,167.76Z" style="fill:#263238"></path><path d="M335.51,158.93c.12-.08.84.82,1.6,2a6.65,6.65,0,0,1,1.08,2.33c-.13.07-.81-.85-1.53-2.06A6.45,6.45,0,0,1,335.51,158.93Z" style="fill:#263238"></path><path d="M329.28,150.9c.11-.1.93.7,1.83,1.78a6.58,6.58,0,0,1,1.43,2.13c-.12.08-.93-.72-1.83-1.79A6.49,6.49,0,0,1,329.28,150.9Z" style="fill:#263238"></path><path d="M322,143.82c.09-.11,1,.57,2.06,1.51s1.81,1.8,1.71,1.9a6.51,6.51,0,0,1-2.06-1.51C322.65,144.78,321.88,143.93,322,143.82Z" style="fill:#263238"></path><path d="M313.73,137.88a6.34,6.34,0,0,1,2.26,1.19c1.17.78,2.06,1.51,2,1.63a6.62,6.62,0,0,1-2.26-1.2C314.54,138.73,313.65,138,313.73,137.88Z" style="fill:#263238"></path><path d="M304.67,133.26a6.35,6.35,0,0,1,2.42.83,6.43,6.43,0,0,1,2.2,1.3,6.35,6.35,0,0,1-2.42-.83A6.56,6.56,0,0,1,304.67,133.26Z" style="fill:#263238"></path><path d="M295,130.19a6.59,6.59,0,0,1,2.53.41,6.4,6.4,0,0,1,2.39.92,6.75,6.75,0,0,1-2.53-.41A6.6,6.6,0,0,1,295,130.19Z" style="fill:#263238"></path><path d="M284.89,128.9a10.39,10.39,0,0,1,5.07.41,15.84,15.84,0,0,1-5.07-.41Z" style="fill:#263238"></path><path d="M274.75,129.6a12.53,12.53,0,0,1,5.06-.6,6.34,6.34,0,0,1-2.5.56A6.66,6.66,0,0,1,274.75,129.6Z" style="fill:#263238"></path><path d="M264.93,132.22a6.32,6.32,0,0,1,2.35-1,6.25,6.25,0,0,1,2.5-.52,6.53,6.53,0,0,1-2.35,1A6.64,6.64,0,0,1,264.93,132.22Z" style="fill:#263238"></path><path d="M255.77,136.63c-.07-.13.87-.77,2.12-1.44a6.32,6.32,0,0,1,2.36-1,12.86,12.86,0,0,1-4.48,2.43Z" style="fill:#263238"></path><path d="M247.65,142.73c-.1-.1.7-.92,1.78-1.83a6.58,6.58,0,0,1,2.13-1.43c.08.12-.72.94-1.79,1.83A6.28,6.28,0,0,1,247.65,142.73Z" style="fill:#263238"></path><path d="M241,150.41a5.73,5.73,0,0,1,1.29-2.22c.87-1.12,1.72-1.9,1.82-1.81s-.55,1-1.41,2.13S241.12,150.49,241,150.41Z" style="fill:#263238"></path><path d="M237.29,157c-.13-.06,0-.61.31-1.24s.65-1.08.78-1,0,.62-.31,1.24S237.42,157.07,237.29,157Z" style="fill:#263238"></path><path d="M173.75,216c0-.14.53-.32,1.21-.41s1.25,0,1.27.11-.51.33-1.21.41S173.76,216.17,173.75,216Z" style="fill:#263238"></path><path d="M163.85,214.9a7.91,7.91,0,0,1,2.48.37,7.73,7.73,0,0,1,2.42.66,8.57,8.57,0,0,1-4.9-1Z" style="fill:#263238"></path><path d="M154.89,210.47a7.54,7.54,0,0,1,2.24,1.14c1.18.7,2.13,1.29,2.07,1.43a5.58,5.58,0,0,1-2.33-1C155.67,211.34,154.81,210.59,154.89,210.47Z" style="fill:#263238"></path><path d="M147.45,203.79c.11-.09.93.67,1.9,1.65s1.72,1.81,1.63,1.92-1-.56-2-1.55S147.34,203.89,147.45,203.79Z" style="fill:#263238"></path><path d="M141.57,195.69c.13-.07.84.8,1.59,2a6.42,6.42,0,0,1,1.16,2.23c-.12.09-.83-.79-1.59-1.95A6.18,6.18,0,0,1,141.57,195.69Z" style="fill:#263238"></path><path d="M137.25,186.66a6.28,6.28,0,0,1,1.22,2.2,6.65,6.65,0,0,1,.75,2.41,6.21,6.21,0,0,1-1.23-2.2A6.39,6.39,0,0,1,137.25,186.66Z" style="fill:#263238"></path><path d="M134.38,177.06a6.36,6.36,0,0,1,.89,2.36,6.2,6.2,0,0,1,.38,2.49,6.08,6.08,0,0,1-.89-2.36A6.22,6.22,0,0,1,134.38,177.06Z" style="fill:#263238"></path><path d="M132.64,167.19a6.54,6.54,0,0,1,.63,2.44,6.29,6.29,0,0,1,.12,2.52,6.19,6.19,0,0,1-.63-2.44A6.08,6.08,0,0,1,132.64,167.19Z" style="fill:#263238"></path><path d="M131.68,157.22a12.12,12.12,0,0,1,.4,5,6.2,6.2,0,0,1-.46-2.47A6.1,6.1,0,0,1,131.68,157.22Z" style="fill:#263238"></path><path d="M131.26,149.71c.15,0,.29.55.32,1.24s-.06,1.25-.2,1.26-.29-.55-.32-1.24S131.12,149.72,131.26,149.71Z" style="fill:#263238"></path><rect x="87.04" y="91.01" width="83.24" height="56.11" transform="translate(-5.46 6.19) rotate(-2.7)" style="fill:#00CC9E"></rect><path d="M88.38,149.07v0L85.74,93h0l83.18-3.92v0l2.64,56.07h0ZM85.79,93l2.64,56,83.1-3.92-2.64-56Z" style="fill:#263238"></path><path d="M169.21,89.74a5.48,5.48,0,0,1-.74.78l-2.22,2.14L158,100.43,130.46,125.9l-.23.21-.25-.18-.6-.44L98.65,103.11c-3.86-2.86-7-5.19-9.26-6.85l-2.49-1.9a5.48,5.48,0,0,1-.84-.7,6.86,6.86,0,0,1,.93.58L89.57,96l9.4,6.66,30.85,22.2.61.44-.48,0L157.63,100l8.42-7.59,2.32-2A5.14,5.14,0,0,1,169.21,89.74Z" style="fill:#263238"></path><path d="M88.7,149.71c-.16-.13,5.73-8.11,13.16-17.82s13.59-17.48,13.75-17.36-5.72,8.11-13.15,17.82S88.87,149.83,88.7,149.71Z" style="fill:#263238"></path><path d="M143.22,112.53c.16-.14,6.7,7.2,14.6,16.38s14.19,16.74,14,16.88-6.69-7.2-14.6-16.39S143.06,112.67,143.22,112.53Z" style="fill:#263238"></path></g></svg>